<?xml version="1.0" standalone="no"?>
<!DOCTYPE svg PUBLIC "-//W3C//DTD SVG 20010904//EN"
 "http://www.w3.org/TR/2001/REC-SVG-20010904/DTD/svg10.dtd">
<svg version="1.0" xmlns="http://www.w3.org/2000/svg"
 width="120.000000pt" height="128.000000pt" viewBox="0 0 120.000000 128.000000"
 preserveAspectRatio="xMidYMid meet">

<g transform="translate(0.000000,128.000000) scale(0.100000,-0.100000)"
fill="#000000" stroke="none">
<path d="M0 640 l0 -640 600 0 600 0 0 640 0 640 -600 0 -600 0 0 -640z m725
190 c3 -5 35 -10 71 -10 48 0 64 -4 64 -14 0 -7 -16 -145 -35 -307 -27 -220
-40 -298 -52 -311 -15 -16 -37 -18 -233 -18 -161 0 -221 3 -234 13 -12 9 -20
35 -26 81 -5 38 -14 72 -20 76 -8 5 -10 21 -5 47 5 35 -23 313 -41 406 l-6 27
231 0 c142 0 232 4 236 10 3 6 15 10 25 10 10 0 22 -4 25 -10z m346 -168 c58
-65 43 -183 -33 -266 -34 -37 -60 -53 -120 -75 -73 -27 -78 -28 -78 -10 0 14
14 22 54 34 75 22 129 64 157 122 65 133 -7 242 -123 184 -23 -11 -44 -18 -47
-15 -11 11 17 39 50 51 53 20 109 9 140 -25z m-166 -529 c68 -5 76 -8 60 -20
-15 -10 -101 -13 -423 -13 -389 0 -442 4 -442 30 0 11 680 14 805 3z"/>
</g>
</svg>
